<mxfile host="app.diagrams.net" modified="2021-08-30T02:14:11.342Z" agent="5.0 (Macintosh; Intel Mac OS X 10_15_7) AppleWebKit/537.36 (KHTML, like Gecko) Chrome/92.0.4515.159 Safari/537.36" etag="n12reiop7LOATnk4TxGL" version="14.9.9" type="github">
  <diagram id="mpWqvC1XyrmxB4uu_Dmn" name="第 1 页">
    <mxGraphModel dx="884" dy="662" grid="1" gridSize="10" guides="1" tooltips="1" connect="1" arrows="1" fold="1" page="1" pageScale="1" pageWidth="827" pageHeight="1169" math="0" shadow="0">
      <root>
        <mxCell id="0" />
        <mxCell id="1" parent="0" />
        <mxCell id="SHmyG0yVuRNfAUFu8d_b-1" value="前端" style="shape=umlLifeline;perimeter=lifelinePerimeter;whiteSpace=wrap;html=1;container=1;collapsible=0;recursiveResize=0;outlineConnect=0;" vertex="1" parent="1">
          <mxGeometry x="90" y="50" width="110" height="590" as="geometry" />
        </mxCell>
        <mxCell id="SHmyG0yVuRNfAUFu8d_b-3" value="开放平台服务" style="shape=umlLifeline;perimeter=lifelinePerimeter;whiteSpace=wrap;html=1;container=1;collapsible=0;recursiveResize=0;outlineConnect=0;" vertex="1" parent="1">
          <mxGeometry x="300" y="50" width="100" height="620" as="geometry" />
        </mxCell>
        <mxCell id="SHmyG0yVuRNfAUFu8d_b-7" value="" style="html=1;points=[];perimeter=orthogonalPerimeter;" vertex="1" parent="SHmyG0yVuRNfAUFu8d_b-3">
          <mxGeometry x="45" y="110" width="10" height="190" as="geometry" />
        </mxCell>
        <mxCell id="SHmyG0yVuRNfAUFu8d_b-8" value="" style="html=1;points=[];perimeter=orthogonalPerimeter;" vertex="1" parent="SHmyG0yVuRNfAUFu8d_b-3">
          <mxGeometry x="55" y="140" width="10" height="40" as="geometry" />
        </mxCell>
        <mxCell id="SHmyG0yVuRNfAUFu8d_b-9" value="2. 修改网关配置" style="edgeStyle=orthogonalEdgeStyle;html=1;align=left;spacingLeft=2;endArrow=block;rounded=0;entryX=1;entryY=0;" edge="1" target="SHmyG0yVuRNfAUFu8d_b-8" parent="SHmyG0yVuRNfAUFu8d_b-3">
          <mxGeometry relative="1" as="geometry">
            <mxPoint x="55" y="120" as="sourcePoint" />
            <Array as="points">
              <mxPoint x="85" y="120" />
            </Array>
          </mxGeometry>
        </mxCell>
        <mxCell id="SHmyG0yVuRNfAUFu8d_b-12" value="" style="html=1;points=[];perimeter=orthogonalPerimeter;" vertex="1" parent="SHmyG0yVuRNfAUFu8d_b-3">
          <mxGeometry x="55" y="230" width="10" height="40" as="geometry" />
        </mxCell>
        <mxCell id="SHmyG0yVuRNfAUFu8d_b-13" value="4. 触发项目变更事件" style="edgeStyle=orthogonalEdgeStyle;html=1;align=left;spacingLeft=2;endArrow=block;rounded=0;entryX=1;entryY=0;" edge="1" target="SHmyG0yVuRNfAUFu8d_b-12" parent="SHmyG0yVuRNfAUFu8d_b-3">
          <mxGeometry relative="1" as="geometry">
            <mxPoint x="55" y="210" as="sourcePoint" />
            <Array as="points">
              <mxPoint x="85" y="210" />
            </Array>
          </mxGeometry>
        </mxCell>
        <mxCell id="SHmyG0yVuRNfAUFu8d_b-4" value="mq" style="shape=umlLifeline;perimeter=lifelinePerimeter;whiteSpace=wrap;html=1;container=1;collapsible=0;recursiveResize=0;outlineConnect=0;" vertex="1" parent="1">
          <mxGeometry x="520" y="50" width="110" height="510" as="geometry" />
        </mxCell>
        <mxCell id="SHmyG0yVuRNfAUFu8d_b-5" value="" style="endArrow=classic;html=1;" edge="1" parent="1" source="SHmyG0yVuRNfAUFu8d_b-1" target="SHmyG0yVuRNfAUFu8d_b-3">
          <mxGeometry width="50" height="50" relative="1" as="geometry">
            <mxPoint x="180" y="180" as="sourcePoint" />
            <mxPoint x="230" y="130" as="targetPoint" />
            <Array as="points">
              <mxPoint x="220" y="120" />
            </Array>
          </mxGeometry>
        </mxCell>
        <mxCell id="SHmyG0yVuRNfAUFu8d_b-6" value="1. 修改网关配置" style="edgeLabel;html=1;align=center;verticalAlign=middle;resizable=0;points=[];" vertex="1" connectable="0" parent="SHmyG0yVuRNfAUFu8d_b-5">
          <mxGeometry x="-0.0238" y="1" relative="1" as="geometry">
            <mxPoint as="offset" />
          </mxGeometry>
        </mxCell>
        <mxCell id="SHmyG0yVuRNfAUFu8d_b-15" value="" style="endArrow=classic;html=1;dashed=1;" edge="1" parent="1" source="SHmyG0yVuRNfAUFu8d_b-7" target="SHmyG0yVuRNfAUFu8d_b-1">
          <mxGeometry width="50" height="50" relative="1" as="geometry">
            <mxPoint x="230" y="360" as="sourcePoint" />
            <mxPoint x="280" y="310" as="targetPoint" />
            <Array as="points">
              <mxPoint x="270" y="250" />
            </Array>
          </mxGeometry>
        </mxCell>
        <mxCell id="SHmyG0yVuRNfAUFu8d_b-16" value="3.&amp;nbsp; 更新成功" style="edgeLabel;html=1;align=center;verticalAlign=middle;resizable=0;points=[];" vertex="1" connectable="0" parent="SHmyG0yVuRNfAUFu8d_b-15">
          <mxGeometry x="0.2768" relative="1" as="geometry">
            <mxPoint x="23" as="offset" />
          </mxGeometry>
        </mxCell>
        <mxCell id="SHmyG0yVuRNfAUFu8d_b-18" value="" style="endArrow=classic;html=1;" edge="1" parent="1" source="SHmyG0yVuRNfAUFu8d_b-3" target="SHmyG0yVuRNfAUFu8d_b-4">
          <mxGeometry width="50" height="50" relative="1" as="geometry">
            <mxPoint x="400" y="420" as="sourcePoint" />
            <mxPoint x="450" y="370" as="targetPoint" />
            <Array as="points">
              <mxPoint x="450" y="380" />
            </Array>
          </mxGeometry>
        </mxCell>
        <mxCell id="SHmyG0yVuRNfAUFu8d_b-19" value="5. 发送项目变更事件" style="edgeLabel;html=1;align=center;verticalAlign=middle;resizable=0;points=[];" vertex="1" connectable="0" parent="SHmyG0yVuRNfAUFu8d_b-18">
          <mxGeometry x="-0.2222" y="3" relative="1" as="geometry">
            <mxPoint x="23" as="offset" />
          </mxGeometry>
        </mxCell>
      </root>
    </mxGraphModel>
  </diagram>
</mxfile>
